#define 279157f2c8194d1ffdee22ffd10f2d40mkrq6VclZgNnM3UX_width 128
#define 279157f2c8194d1ffdee22ffd10f2d40mkrq6VclZgNnM3UX_height 128
static char 279157f2c8194d1ffdee22ffd10f2d40mkrq6VclZgNnM3UX_bits[] = {
  0x00, 0x00, 0x00, 0x00, 0x00, 0x00, 0x00, 0x00, 0x00, 0x00, 0x00, 0x00, 
  0x00, 0x00, 0x00, 0x00, 0x00, 0x00, 0x00, 0x00, 0x00, 0x00, 0x00, 0x00, 
  0x00, 0x00, 0x00, 0x00, 0x00, 0x00, 0x00, 0x00, 0x00, 0x00, 0x00, 0x00, 
  0x00, 0x00, 0x00, 0x00, 0x00, 0x00, 0x00, 0x00, 0x00, 0x00, 0x00, 0x00, 
  0x00, 0x00, 0x00, 0x00, 0x00, 0x00, 0x00, 0x00, 0x00, 0x00, 0x00, 0x00, 
  0x00, 0x00, 0x00, 0x00, 0x00, 0x00, 0x00, 0x00, 0x00, 0x00, 0x00, 0x00, 
  0x00, 0x00, 0x00, 0x00, 0x00, 0x00, 0x00, 0x00, 0x00, 0x00, 0x00, 0x00, 
  0x00, 0x00, 0x00, 0x00, 0x00, 0x00, 0x00, 0x00, 0x00, 0x00, 0x00, 0x00, 
  0x00, 0x00, 0x00, 0x00, 0x00, 0x00, 0x00, 0x00, 0x00, 0x00, 0x00, 0x00, 
  0x00, 0x00, 0x00, 0x00, 0x00, 0x00, 0x00, 0x00, 0x00, 0x00, 0x00, 0x00, 
  0x00, 0x00, 0x00, 0x00, 0x00, 0x00, 0x00, 0x00, 0x00, 0x00, 0x00, 0x00, 
  0x00, 0x00, 0x00, 0x00, 0x00, 0x00, 0x00, 0x00, 0x00, 0x00, 0x00, 0x00, 
  0x00, 0x00, 0x00, 0x00, 0x00, 0x00, 0x00, 0x00, 0x00, 0x00, 0x00, 0x00, 
  0x00, 0x00, 0x00, 0x00, 0x00, 0x00, 0x00, 0x00, 0x00, 0x00, 0x00, 0x00, 
  0x00, 0x00, 0x00, 0x00, 0x00, 0x00, 0x00, 0x00, 0x00, 0x00, 0x00, 0x00, 
  0x00, 0x00, 0x00, 0x00, 0x00, 0x00, 0x00, 0x00, 0x00, 0x00, 0x00, 0x00, 
  0x00, 0x00, 0x00, 0x00, 0x00, 0x00, 0x00, 0x00, 0x00, 0x00, 0x00, 0x00, 
  0x00, 0x00, 0x00, 0x00, 0x00, 0x00, 0x00, 0x00, 0x00, 0x00, 0x00, 0x00, 
  0x00, 0x00, 0x00, 0x00, 0x00, 0x00, 0x00, 0x00, 0x00, 0x00, 0x00, 0x00, 
  0x00, 0x00, 0x00, 0x00, 0x00, 0x00, 0x00, 0x00, 0x00, 0x00, 0x00, 0x00, 
  0x00, 0x00, 0x00, 0x00, 0x00, 0x00, 0x00, 0x00, 0x00, 0x00, 0x00, 0x00, 
  0x00, 0x00, 0x00, 0x00, 0x00, 0x00, 0x00, 0x00, 0x00, 0x00, 0x00, 0x00, 
  0x00, 0x00, 0x00, 0x00, 0x00, 0x00, 0x00, 0x00, 0x00, 0x00, 0x00, 0x00, 
  0x00, 0x00, 0x14, 0x00, 0x00, 0x09, 0x00, 0x00, 0x00, 0x00, 0x00, 0x00, 
  0x00, 0x00, 0x00, 0x00, 0x00, 0xF0, 0xFF, 0x01, 0xF0, 0xFF, 0x01, 0x00, 
  0x00, 0x00, 0x00, 0x00, 0x00, 0x00, 0x00, 0x00, 0x00, 0xFE, 0xFF, 0x0F, 
  0xFE, 0xFF, 0x0F, 0x00, 0x00, 0x00, 0x00, 0x00, 0x00, 0x00, 0x00, 0x00, 
  0x80, 0xFF, 0xFF, 0xBF, 0xFF, 0xFF, 0x3F, 0x00, 0x00, 0x00, 0x00, 0x00, 
  0x00, 0x00, 0x00, 0x00, 0xE0, 0xFF, 0xFF, 0xFF, 0xFF, 0xFF, 0xFF, 0x00, 
  0x00, 0x00, 0x00, 0x00, 0x00, 0x00, 0x00, 0x00, 0xF0, 0xFF, 0xFF, 0xFF, 
  0xFF, 0xFF, 0xFF, 0x01, 0x00, 0x00, 0x00, 0x00, 0x00, 0x00, 0x00, 0x00, 
  0xFC, 0xFF, 0xFF, 0xFF, 0xFF, 0xFF, 0xFF, 0x07, 0x00, 0x00, 0x00, 0x00, 
  0x00, 0x00, 0x00, 0x00, 0xFE, 0xFF, 0xFF, 0xFF, 0xFF, 0xFF, 0xFF, 0x0F, 
  0x00, 0x00, 0x00, 0x00, 0x00, 0x00, 0x00, 0x00, 0xFF, 0x7F, 0x80, 0xFF, 
  0xBF, 0xC0, 0xFF, 0x1F, 0x00, 0x00, 0x00, 0x00, 0x00, 0x00, 0x00, 0x00, 
  0xFF, 0x0F, 0x00, 0xFC, 0x3F, 0x00, 0xFE, 0x3F, 0x00, 0x00, 0x00, 0x00, 
  0x00, 0x00, 0x00, 0x80, 0xFF, 0x03, 0x00, 0xF8, 0x7F, 0x00, 0xF0, 0x7F, 
  0x00, 0x00, 0x00, 0x00, 0x00, 0x00, 0x00, 0xC0, 0xFF, 0x00, 0x00, 0xE0, 
  0x7F, 0x00, 0xE0, 0x7F, 0x00, 0x00, 0x00, 0x00, 0x00, 0x00, 0x00, 0xE0, 
  0x7F, 0x00, 0x00, 0x80, 0xFF, 0x00, 0x80, 0xFF, 0x00, 0x00, 0x00, 0x00, 
  0x00, 0x00, 0x00, 0xE0, 0x3F, 0x00, 0x00, 0x80, 0xFF, 0x01, 0x80, 0xFF, 
  0x01, 0x00, 0x00, 0x00, 0x00, 0x00, 0x00, 0xF0, 0x1F, 0x00, 0x00, 0x00, 
  0xFF, 0x01, 0x00, 0xFF, 0x01, 0x00, 0x00, 0x00, 0x00, 0x00, 0x00, 0xF0, 
  0x0F, 0x00, 0x00, 0x00, 0xFE, 0x03, 0x00, 0xFE, 0x03, 0x00, 0x00, 0x00, 
  0x00, 0x00, 0x00, 0xF8, 0x0F, 0x00, 0x00, 0x00, 0xFC, 0x03, 0x00, 0xFC, 
  0x03, 0x00, 0x00, 0x00, 0x00, 0x00, 0x00, 0xF8, 0x07, 0x00, 0x00, 0x00, 
  0xFC, 0x03, 0x00, 0xFC, 0x03, 0x00, 0x00, 0x00, 0x00, 0x00, 0x00, 0xF8, 
  0x07, 0x00, 0x00, 0x00, 0xF8, 0x07, 0x00, 0xF8, 0x07, 0x00, 0x00, 0x00, 
  0x00, 0x00, 0x00, 0xFC, 0x03, 0x00, 0x00, 0x00, 0xF8, 0x07, 0x00, 0xF8, 
  0x07, 0x00, 0x00, 0x00, 0x00, 0x00, 0x00, 0xFC, 0x03, 0x00, 0x00, 0x00, 
  0xF8, 0x07, 0x00, 0xF8, 0x07, 0x00, 0x00, 0x00, 0x00, 0x00, 0x00, 0xFC, 
  0x03, 0x00, 0x00, 0x00, 0xF0, 0x07, 0x00, 0xF0, 0x07, 0x00, 0x00, 0x00, 
  0x00, 0x00, 0x00, 0xFC, 0x01, 0x00, 0x00, 0x00, 0xF0, 0x0F, 0x00, 0xF0, 
  0x0F, 0x00, 0x00, 0x00, 0x00, 0x00, 0x00, 0xFE, 0x01, 0x00, 0x00, 0x00, 
  0xF0, 0x0F, 0x00, 0xF0, 0x0F, 0x00, 0x00, 0x00, 0x00, 0x00, 0x00, 0xFC, 
  0x01, 0x00, 0x00, 0x00, 0xF0, 0x0F, 0x00, 0xF0, 0x0F, 0x00, 0x00, 0x00, 
  0x00, 0x00, 0x00, 0xFC, 0x01, 0x00, 0x00, 0x00, 0xF0, 0x0F, 0x00, 0xF0, 
  0x07, 0x00, 0x00, 0x00, 0x00, 0x00, 0x00, 0xFE, 0x01, 0x00, 0x00, 0x00, 
  0xF0, 0x0F, 0x00, 0xF0, 0x0F, 0x00, 0x00, 0x00, 0x00, 0x00, 0x00, 0xFC, 
  0x01, 0x00, 0x00, 0x00, 0xF0, 0x07, 0x00, 0xF0, 0x0F, 0x00, 0x00, 0x00, 
  0x00, 0x00, 0x00, 0xFC, 0x01, 0x00, 0x00, 0x00, 0xF0, 0x0F, 0x00, 0xF0, 
  0x07, 0x00, 0x00, 0x00, 0x00, 0x00, 0x00, 0xFC, 0x03, 0x00, 0x00, 0x00, 
  0xF0, 0x0F, 0x00, 0xF0, 0x0F, 0x00, 0x00, 0x00, 0x00, 0x00, 0x00, 0xFC, 
  0x03, 0x00, 0x00, 0x00, 0xF0, 0x07, 0x00, 0xF0, 0x07, 0x00, 0x00, 0x00, 
  0x00, 0x00, 0x00, 0xFC, 0x03, 0x00, 0x00, 0x00, 0xF8, 0x07, 0x00, 0xF8, 
  0x07, 0x00, 0x00, 0x00, 0x00, 0x00, 0x00, 0xF8, 0x07, 0x00, 0x00, 0x00, 
  0xF8, 0x07, 0x00, 0xF8, 0x07, 0x00, 0x00, 0x00, 0x00, 0x00, 0x00, 0xF8, 
  0x07, 0x00, 0x00, 0x00, 0xFC, 0x07, 0x00, 0xFC, 0x07, 0x00, 0x00, 0x00, 
  0x00, 0x00, 0x00, 0xF8, 0x07, 0x00, 0x00, 0x00, 0xFC, 0x03, 0x00, 0xFC, 
  0x03, 0x00, 0x00, 0x00, 0x00, 0x00, 0x00, 0xF0, 0x0F, 0x00, 0x00, 0x00, 
  0xFE, 0x03, 0x00, 0xFE, 0x03, 0x00, 0x00, 0x00, 0x00, 0x00, 0x00, 0xF0, 
  0x1F, 0x00, 0x00, 0x00, 0xFE, 0x01, 0x00, 0xFE, 0x01, 0x00, 0x00, 0x00, 
  0x00, 0x00, 0x00, 0xE0, 0x1F, 0x00, 0x00, 0x80, 0xFF, 0x01, 0x00, 0xFF, 
  0x01, 0x00, 0x00, 0x00, 0x00, 0x00, 0x00, 0xE0, 0x7F, 0x00, 0x00, 0x80, 
  0xFF, 0x00, 0x80, 0xFF, 0x00, 0x00, 0x00, 0x00, 0x00, 0x00, 0x00, 0xC0, 
  0xFF, 0x00, 0x00, 0xC0, 0xFF, 0x00, 0xE0, 0xFF, 0x00, 0x00, 0x00, 0x00, 
  0x00, 0x00, 0x00, 0xC0, 0xFF, 0x01, 0x00, 0xF0, 0x7F, 0x00, 0xF0, 0x7F, 
  0x00, 0x00, 0x00, 0x00, 0x00, 0x00, 0x00, 0x80, 0xFF, 0x07, 0x00, 0xFC, 
  0x3F, 0x00, 0xFC, 0x3F, 0x00, 0x00, 0x00, 0x00, 0x00, 0x00, 0x00, 0x00, 
  0xFF, 0x3F, 0x00, 0xFF, 0x3F, 0x00, 0xFF, 0x1F, 0x00, 0x00, 0x00, 0x00, 
  0x00, 0x00, 0x00, 0x00, 0xFE, 0xFF, 0xFF, 0xFF, 0xFF, 0xFF, 0xFF, 0x0F, 
  0x00, 0x00, 0x00, 0x00, 0x00, 0x00, 0x00, 0x00, 0xFC, 0xFF, 0xFF, 0xFF, 
  0xFF, 0xFF, 0xFF, 0x07, 0x00, 0x00, 0x00, 0x00, 0x00, 0x00, 0x00, 0x00, 
  0xF8, 0xFF, 0xFF, 0xFF, 0xFF, 0xFF, 0xFF, 0x03, 0x00, 0x00, 0x00, 0x00, 
  0x00, 0x00, 0x00, 0x00, 0xE0, 0xFF, 0xFF, 0xFF, 0xFF, 0xFF, 0xFF, 0x01, 
  0x00, 0x00, 0x00, 0x00, 0x00, 0x00, 0x00, 0x00, 0xC0, 0xFF, 0xFF, 0xFF, 
  0xFF, 0xFF, 0x7F, 0x00, 0x00, 0x00, 0x00, 0x00, 0x00, 0x00, 0x00, 0x00, 
  0x00, 0xFE, 0xFF, 0x1F, 0xFF, 0xFF, 0x1F, 0x00, 0x00, 0x00, 0x00, 0x00, 
  0x00, 0x00, 0x00, 0x00, 0x00, 0xFC, 0xFF, 0x03, 0xF8, 0xFF, 0x07, 0x00, 
  0x00, 0x00, 0x00, 0x00, 0x00, 0x00, 0x00, 0x00, 0x00, 0x80, 0x6F, 0x00, 
  0x80, 0x5B, 0x00, 0x00, 0x00, 0x00, 0x00, 0x00, 0x00, 0x00, 0x00, 0x00, 
  0x00, 0x00, 0x00, 0x00, 0x00, 0x00, 0x00, 0x00, 0x00, 0x00, 0x00, 0x00, 
  0x00, 0x00, 0x00, 0x00, 0x00, 0x00, 0x00, 0x00, 0x00, 0x00, 0x00, 0x00, 
  0x00, 0x00, 0x00, 0x00, 0x00, 0x00, 0x00, 0x00, 0x00, 0x00, 0x00, 0x00, 
  0x00, 0x00, 0x00, 0x00, 0x00, 0x00, 0x00, 0x00, 0x00, 0x00, 0x00, 0x00, 
  0xE0, 0xFF, 0xFF, 0xFF, 0xFF, 0xFF, 0xFF, 0x01, 0x00, 0x00, 0x00, 0x00, 
  0x00, 0x00, 0x00, 0x00, 0xFF, 0xFF, 0xFF, 0xFF, 0xFF, 0xFF, 0xFF, 0x1F, 
  0x00, 0x00, 0x00, 0x00, 0x00, 0x00, 0x00, 0xE0, 0xFF, 0xFF, 0xFF, 0xFF, 
  0xFF, 0xFF, 0xFF, 0xFF, 0x00, 0x00, 0x00, 0x00, 0x00, 0x00, 0x00, 0xF0, 
  0xFF, 0xFF, 0xFF, 0xFF, 0xFF, 0xFF, 0xFF, 0xFF, 0x01, 0x00, 0x00, 0x00, 
  0x00, 0x00, 0x00, 0xFC, 0xFF, 0xFF, 0xFF, 0xFF, 0xFF, 0xFF, 0xFF, 0xFF, 
  0x0F, 0x00, 0x00, 0x00, 0x00, 0x00, 0x00, 0xFF, 0xFF, 0xFF, 0xFF, 0xFF, 
  0xFF, 0xFF, 0xFF, 0xFF, 0x1F, 0x00, 0x00, 0x00, 0x00, 0x00, 0x80, 0xFF, 
  0xFF, 0xFF, 0xFF, 0xFF, 0xFF, 0xFF, 0xFF, 0xFF, 0x3F, 0x00, 0x00, 0x00, 
  0x00, 0x00, 0xC0, 0xFF, 0xFF, 0xA6, 0x9A, 0xE6, 0xFF, 0xFF, 0xE4, 0xFF, 
  0xFF, 0x00, 0x00, 0x00, 0x00, 0x00, 0xF0, 0xFF, 0x07, 0x00, 0x00, 0x00, 
  0xFC, 0xFF, 0x01, 0xFC, 0xFF, 0x01, 0x00, 0x00, 0x00, 0x00, 0xF0, 0xFF, 
  0x01, 0x00, 0x00, 0x00, 0xE0, 0xFF, 0x03, 0xE0, 0xFF, 0x03, 0x00, 0x00, 
  0x00, 0x00, 0xFC, 0x3F, 0x00, 0x00, 0x00, 0x00, 0x80, 0xFF, 0x07, 0x80, 
  0xFF, 0x07, 0x00, 0x00, 0x00, 0x00, 0xFE, 0x1F, 0x00, 0x00, 0x00, 0x00, 
  0x00, 0xFE, 0x0F, 0x00, 0xFF, 0x0F, 0x00, 0x00, 0x00, 0x00, 0xFE, 0x07, 
  0x00, 0x00, 0x00, 0x00, 0x00, 0xFC, 0x1F, 0x00, 0xFC, 0x1F, 0x00, 0x00, 
  0x00, 0x00, 0xFF, 0x03, 0x00, 0x00, 0x00, 0x00, 0x00, 0xF8, 0x1F, 0x00, 
  0xF8, 0x1F, 0x00, 0x00, 0x00, 0x80, 0xFF, 0x01, 0x00, 0x00, 0x00, 0x00, 
  0x00, 0xF0, 0x3F, 0x00, 0xE0, 0x3F, 0x00, 0x00, 0x00, 0x80, 0xFF, 0x00, 
  0x00, 0x00, 0x00, 0x00, 0x00, 0xE0, 0x7F, 0x00, 0xE0, 0x7F, 0x00, 0x00, 
  0x00, 0xC0, 0x7F, 0x00, 0x00, 0x00, 0x00, 0x00, 0x00, 0xC0, 0x7F, 0x00, 
  0xC0, 0x7F, 0x00, 0x00, 0x00, 0xE0, 0x3F, 0x00, 0x00, 0x00, 0x00, 0x00, 
  0x00, 0x80, 0xFF, 0x00, 0x80, 0xFF, 0x00, 0x00, 0x00, 0xE0, 0x3F, 0x00, 
  0x00, 0x00, 0x00, 0x00, 0x00, 0x00, 0xFF, 0x00, 0x00, 0xFF, 0x00, 0x00, 
  0x00, 0xF0, 0x1F, 0x00, 0x00, 0x00, 0x00, 0x00, 0x00, 0x00, 0xFF, 0x01, 
  0x00, 0xFF, 0x01, 0x00, 0x00, 0xF0, 0x0F, 0x00, 0x00, 0x00, 0x00, 0x00, 
  0x00, 0x00, 0xFE, 0x01, 0x00, 0xFE, 0x01, 0x00, 0x00, 0xF0, 0x0F, 0x30, 
  0x00, 0x00, 0x00, 0x00, 0x70, 0x00, 0xFC, 0x03, 0x00, 0xFC, 0x03, 0x00, 
  0x00, 0xF8, 0x07, 0xF8, 0x00, 0x00, 0x00, 0x00, 0xF8, 0x00, 0xFC, 0x03, 
  0x00, 0xFC, 0x03, 0x00, 0x00, 0xF8, 0x07, 0xFC, 0x01, 0x00, 0x00, 0x00, 
  0xFC, 0x01, 0xFC, 0x03, 0x00, 0xFC, 0x03, 0x00, 0x00, 0xF8, 0x07, 0xFC, 
  0x01, 0x00, 0x00, 0x00, 0xFC, 0x01, 0xF8, 0x07, 0x00, 0xF8, 0x07, 0x00, 
  0x00, 0xFC, 0x03, 0xFC, 0x01, 0x00, 0x00, 0x00, 0xFE, 0x01, 0xF8, 0x07, 
  0x00, 0xF8, 0x07, 0x00, 0x00, 0xFC, 0x03, 0xFE, 0x01, 0x00, 0x00, 0x00, 
  0xFC, 0x01, 0xF8, 0x07, 0x00, 0xF8, 0x07, 0x00, 0x00, 0xFC, 0x01, 0xFE, 
  0x01, 0x00, 0x00, 0x00, 0xFC, 0x01, 0xF0, 0x07, 0x00, 0xF0, 0x07, 0x00, 
  0x00, 0xFC, 0x03, 0xFC, 0x01, 0x00, 0x00, 0x00, 0xFE, 0x01, 0xF0, 0x07, 
  0x00, 0xF0, 0x0F, 0x00, 0x00, 0xFC, 0x01, 0xFE, 0x01, 0x00, 0x00, 0x00, 
  0xFE, 0x01, 0xF0, 0x0F, 0x00, 0xF0, 0x0F, 0x00, 0x00, 0xFC, 0x01, 0xFC, 
  0x01, 0x00, 0x00, 0x00, 0xFC, 0x01, 0xF0, 0x07, 0x00, 0xF0, 0x07, 0x00, 
  0x00, 0xFE, 0x01, 0xFC, 0x01, 0x00, 0x00, 0x00, 0xFE, 0x01, 0xF0, 0x0F, 
  0x00, 0xF0, 0x0F, 0x00, 0x00, 0xFC, 0x01, 0xFE, 0x01, 0x00, 0x00, 0x00, 
  0xFC, 0x01, 0xF0, 0x0F, 0x00, 0xF0, 0x0F, 0x00, 0x00, 0xFE, 0x01, 0xFC, 
  0x01, 0x00, 0x00, 0x00, 0xFC, 0x01, 0xF0, 0x0F, 0x00, 0xE0, 0x07, 0x00, 
  0x00, 0xFC, 0x01, 0xFE, 0x01, 0x00, 0x00, 0x00, 0xFE, 0x01, 0xF0, 0x0F, 
  0x00, 0xF0, 0x0F, 0x00, 0x00, 0xFE, 0x01, 0xFE, 0x01, 0x00, 0x00, 0x00, 
  0xFE, 0x01, 0xF0, 0x0F, 0x00, 0xF0, 0x0F, 0x00, 0x00, 0xFC, 0x01, 0xFC, 
  0x01, 0x00, 0x00, 0x00, 0xFC, 0x01, 0xF0, 0x07, 0x00, 0xF0, 0x0F, 0x00, 
  0x00, 0xFC, 0x01, 0xFE, 0x01, 0x00, 0x00, 0x00, 0xFE, 0x01, 0xE0, 0x0F, 
  0x00, 0xF0, 0x0F, 0x00, 0x00, 0xFE, 0x01, 0xFC, 0x01, 0x00, 0x00, 0x00, 
  0xFC, 0x01, 0xF0, 0x0F, 0x00, 0xF0, 0x0F, 0x00, 0x00, 0xFE, 0x01, 0xFC, 
  0x01, 0x00, 0x00, 0x00, 0xFC, 0x01, 0xF0, 0x0F, 0x00, 0xF0, 0x0F, 0x00, 
  0x00, 0xFC, 0x01, 0xFE, 0x01, 0x00, 0x00, 0x00, 0xFE, 0x01, 0xF0, 0x0F, 
  0x00, 0xE0, 0x07, 0x00, 0x00, 0x00, 0x00, 0xFC, 0x01, 0x00, 0x00, 0x00, 
  0xFC, 0x01, 0xF0, 0x0F, 0x00, 0x00, 0x00, 0x00, 0x00, 0x00, 0x00, 0xFC, 
  0x01, 0x00, 0x00, 0x00, 0xFC, 0x01, 0xE0, 0x07, 0x00, 0x00, 0x00, 0x00, 
  0x00, 0x00, 0x00, 0xFC, 0x00, 0x00, 0x00, 0x00, 0xF8, 0x00, 0xE0, 0x07, 
  0x00, 0x00, 0x00, 0x00, 0x00, 0x00, 0x00, 0x60, 0x00, 0x00, 0x00, 0x00, 
  0x60, 0x00, 0x80, 0x01, 0x00, 0x00, 0x00, 0x00, 0x00, 0x00, 0x00, 0x00, 
  0x00, 0x00, 0x00, 0x00, 0x00, 0x00, 0x00, 0x00, 0x00, 0x00, 0x00, 0x00, 
  0x00, 0x00, 0x00, 0x00, 0x00, 0x00, 0x00, 0x00, 0x00, 0x00, 0x00, 0x00, 
  0x00, 0x00, 0x00, 0x00, 0x00, 0x00, 0x00, 0x00, 0x00, 0x00, 0x00, 0x00, 
  0x00, 0x00, 0x00, 0x00, 0x00, 0x00, 0x00, 0x00, 0x00, 0x00, 0x00, 0x00, 
  0x00, 0x00, 0x00, 0x00, 0x00, 0x00, 0x00, 0x00, 0x00, 0x00, 0x00, 0x00, 
  0x00, 0x00, 0x00, 0x00, 0x00, 0x00, 0x00, 0x00, 0x00, 0x00, 0x00, 0x00, 
  0x00, 0x00, 0x00, 0x00, 0x00, 0x00, 0x00, 0x00, 0x00, 0x00, 0x00, 0x00, 
  0x00, 0x00, 0x00, 0x00, 0x00, 0x00, 0x00, 0x00, 0x00, 0x00, 0x00, 0x00, 
  0x00, 0x00, 0x00, 0x00, 0x00, 0x00, 0x00, 0x00, 0x00, 0x00, 0x00, 0x00, 
  0x00, 0x00, 0x00, 0x00, 0x00, 0x00, 0x00, 0x00, 0x00, 0x00, 0x00, 0x00, 
  0x00, 0x00, 0x00, 0x00, 0x00, 0x00, 0x00, 0x00, 0x00, 0x00, 0x00, 0x00, 
  0x00, 0x00, 0x00, 0x00, 0x00, 0x00, 0x00, 0x00, 0x00, 0x00, 0x00, 0x00, 
  0x00, 0x00, 0x00, 0x00, 0x00, 0x00, 0x00, 0x00, 0x00, 0x00, 0x00, 0x00, 
  0x00, 0x00, 0x00, 0x00, 0x00, 0x00, 0x00, 0x00, 0x00, 0x00, 0x00, 0x00, 
  0x00, 0x00, 0x00, 0x00, 0x00, 0x00, 0x00, 0x00, 0x00, 0x00, 0x00, 0x00, 
  0x00, 0x00, 0x00, 0x00, 0x00, 0x00, 0x00, 0x00, };
