#define 79fdccffbd54434e94fceff07481d8f0a0B2Z1d9SCyCgbpy_width 128
#define 79fdccffbd54434e94fceff07481d8f0a0B2Z1d9SCyCgbpy_height 128
static char 79fdccffbd54434e94fceff07481d8f0a0B2Z1d9SCyCgbpy_bits[] = {
  0x00, 0x00, 0x00, 0x00, 0x00, 0x00, 0x00, 0x00, 0x00, 0x00, 0x00, 0x00, 
  0x00, 0x00, 0x00, 0x00, 0x00, 0x00, 0x00, 0x00, 0x00, 0x00, 0x00, 0x00, 
  0x00, 0x00, 0x00, 0x00, 0x00, 0x00, 0x00, 0x00, 0x00, 0x00, 0x00, 0x00, 
  0x00, 0x00, 0x00, 0x00, 0x00, 0x00, 0x00, 0x00, 0x00, 0x00, 0x00, 0x00, 
  0x00, 0x00, 0x00, 0x00, 0x00, 0x00, 0x00, 0x00, 0x00, 0x00, 0x00, 0x00, 
  0x00, 0x00, 0x00, 0x00, 0x00, 0x00, 0x00, 0x00, 0x00, 0x00, 0x00, 0x00, 
  0x00, 0x00, 0x00, 0x00, 0x00, 0x00, 0x00, 0x00, 0x00, 0x00, 0x00, 0x00, 
  0x00, 0x00, 0x00, 0x00, 0x00, 0x00, 0x00, 0x00, 0x00, 0x00, 0x00, 0x00, 
  0x00, 0x00, 0x00, 0x00, 0x00, 0x00, 0x00, 0x00, 0x00, 0x00, 0x00, 0x00, 
  0x00, 0x00, 0x00, 0x00, 0x00, 0x00, 0x00, 0x00, 0x00, 0x00, 0x00, 0x00, 
  0x00, 0x00, 0x00, 0x00, 0x00, 0x00, 0x00, 0x00, 0x00, 0x00, 0x00, 0x00, 
  0x00, 0x00, 0x00, 0x00, 0x00, 0x00, 0x00, 0x00, 0x00, 0x00, 0x00, 0x00, 
  0x00, 0x00, 0x00, 0x00, 0x00, 0x00, 0x00, 0x10, 0x00, 0x00, 0x00, 0x00, 
  0x00, 0x00, 0x00, 0x00, 0x00, 0x00, 0x00, 0x00, 0x00, 0x80, 0xFE, 0xFF, 
  0x0F, 0x00, 0x00, 0x00, 0x00, 0x00, 0x00, 0x00, 0x00, 0x00, 0x00, 0x00, 
  0x00, 0xF0, 0xFF, 0xEB, 0xFF, 0x01, 0x00, 0x00, 0x00, 0x00, 0x00, 0x00, 
  0x00, 0x00, 0x00, 0x00, 0x00, 0xFE, 0x01, 0x00, 0xF0, 0x0F, 0x00, 0x00, 
  0x00, 0x00, 0x00, 0x00, 0x00, 0x00, 0x00, 0x00, 0xE0, 0x0F, 0x00, 0x00, 
  0x00, 0xFF, 0x00, 0x00, 0x00, 0x00, 0x00, 0x00, 0x00, 0x00, 0x00, 0x00, 
  0xF8, 0x01, 0x00, 0x00, 0x00, 0xF0, 0x03, 0x00, 0x00, 0x00, 0x00, 0x00, 
  0x00, 0x00, 0x00, 0x00, 0x3E, 0x00, 0x00, 0x00, 0x01, 0x80, 0x0F, 0x00, 
  0x00, 0x00, 0x00, 0x00, 0x00, 0x00, 0x00, 0x80, 0x0F, 0x00, 0x00, 0x00, 
  0x10, 0x00, 0x3E, 0x00, 0x00, 0x00, 0x00, 0x00, 0x00, 0x00, 0x00, 0xC0, 
  0x03, 0x00, 0x00, 0x00, 0x00, 0x11, 0x78, 0x00, 0x00, 0x00, 0x00, 0x00, 
  0x00, 0x00, 0x00, 0xF0, 0x00, 0x00, 0x80, 0x11, 0x00, 0x80, 0xE0, 0x01, 
  0x00, 0x00, 0x00, 0x00, 0x00, 0x00, 0x00, 0x38, 0x00, 0x00, 0xA8, 0x6E, 
  0x45, 0x00, 0xC4, 0x03, 0x00, 0x00, 0x00, 0x00, 0x00, 0x00, 0x00, 0x1E, 
  0x00, 0x60, 0x5B, 0xA5, 0xB5, 0x29, 0x01, 0x0F, 0x00, 0x00, 0x00, 0x00, 
  0x00, 0x00, 0x00, 0x07, 0x00, 0x90, 0xA5, 0x5E, 0x5A, 0x02, 0x28, 0x1C, 
  0x00, 0x00, 0x00, 0x00, 0x00, 0x00, 0x80, 0x03, 0x00, 0x4A, 0xD5, 0x7A, 
  0xB5, 0x15, 0x00, 0x78, 0x00, 0x00, 0x00, 0x00, 0x00, 0x00, 0xC0, 0x01, 
  0x80, 0xB5, 0x2A, 0xA5, 0x4B, 0x6A, 0x90, 0x71, 0x00, 0x00, 0x00, 0x00, 
  0x00, 0x00, 0x70, 0x00, 0x60, 0x6A, 0xB5, 0x52, 0xAA, 0xD5, 0x93, 0xE2, 
  0x00, 0x00, 0x00, 0x00, 0x00, 0x00, 0x78, 0x00, 0xA8, 0xDD, 0x5B, 0xAD, 
  0x59, 0x6A, 0x05, 0xC0, 0x03, 0x00, 0x00, 0x00, 0x00, 0x00, 0x1C, 0x00, 
  0xB8, 0x66, 0x56, 0xB6, 0xF6, 0x9F, 0x56, 0x94, 0x07, 0x00, 0x00, 0x00, 
  0x00, 0x00, 0x0C, 0x00, 0x5D, 0xAA, 0xB9, 0x5B, 0x2B, 0x64, 0x2B, 0x02, 
  0x06, 0x00, 0x00, 0x00, 0x00, 0x00, 0x0E, 0x80, 0xB6, 0xBB, 0x66, 0x6A, 
  0x9A, 0xE9, 0x6E, 0x21, 0x0E, 0x00, 0x00, 0x00, 0x00, 0x00, 0x03, 0xA0, 
  0xC9, 0x66, 0x9D, 0xB7, 0x6E, 0xAF, 0x5A, 0x45, 0x1C, 0x00, 0x00, 0x00, 
  0x00, 0x80, 0x03, 0x70, 0x5F, 0x96, 0x96, 0x04, 0xF2, 0x36, 0xD3, 0x33, 
  0x38, 0x00, 0x00, 0x00, 0x00, 0xC0, 0x01, 0xC8, 0xB2, 0xDD, 0xD0, 0xFF, 
  0x85, 0xD9, 0x6E, 0x86, 0x72, 0x00, 0x00, 0x00, 0x00, 0xC0, 0x00, 0xBC, 
  0xDB, 0x8E, 0xFF, 0xFF, 0x5F, 0x7E, 0x79, 0x89, 0xE6, 0x00, 0x00, 0x00, 
  0x00, 0xE0, 0x00, 0x66, 0x5A, 0xE2, 0x7F, 0xC0, 0xFF, 0xC1, 0xC7, 0x37, 
  0xE1, 0x00, 0x00, 0x00, 0x00, 0x70, 0x00, 0xE7, 0xB5, 0xFB, 0x03, 0x00, 
  0xF8, 0xA9, 0x7E, 0x9E, 0xCC, 0x01, 0x00, 0x00, 0x00, 0x30, 0x00, 0x3C, 
  0x6E, 0x7C, 0x00, 0x00, 0xC0, 0xD7, 0x5A, 0xBA, 0xA2, 0x01, 0x00, 0x00, 
  0x00, 0x38, 0x80, 0xEF, 0xAF, 0x1F, 0x00, 0x00, 0x00, 0x3F, 0xB7, 0x67, 
  0x96, 0x03, 0x00, 0x00, 0x00, 0x1C, 0x40, 0xA9, 0xDA, 0x07, 0x00, 0x00, 
  0x00, 0xBC, 0xEE, 0xBD, 0x29, 0x07, 0x00, 0x00, 0x00, 0x0C, 0xE0, 0xFF, 
  0xCF, 0x03, 0x00, 0x00, 0x00, 0x78, 0xEA, 0xEB, 0x61, 0x06, 0x00, 0x00, 
  0x00, 0x0E, 0xA0, 0x59, 0xF1, 0x00, 0x00, 0x00, 0x00, 0xE0, 0xB9, 0x3C, 
  0x56, 0x0E, 0x00, 0x00, 0x00, 0x06, 0xB0, 0x7F, 0x7B, 0x00, 0x00, 0x00, 
  0x00, 0xC0, 0xBB, 0xEF, 0x55, 0x0E, 0x00, 0x00, 0x00, 0x07, 0xD8, 0xD2, 
  0x3C, 0x00, 0x00, 0x00, 0x00, 0x80, 0xA7, 0x7A, 0xA7, 0x1D, 0x00, 0x00, 
  0x00, 0x03, 0xF8, 0xEF, 0x1E, 0x00, 0x00, 0x00, 0x00, 0x00, 0xEF, 0xA7, 
  0x5E, 0x1D, 0x00, 0x00, 0x00, 0x03, 0x54, 0xB6, 0x0F, 0x00, 0x00, 0x00, 
  0x00, 0x00, 0x9E, 0xFE, 0xA7, 0x19, 0x00, 0x00, 0x80, 0x01, 0xAC, 0x1B, 
  0x07, 0x00, 0x00, 0x00, 0x00, 0x00, 0xBC, 0x5F, 0x6F, 0x38, 0x00, 0x00, 
  0x80, 0x01, 0xFE, 0xFF, 0x03, 0x00, 0x00, 0x00, 0x00, 0x00, 0x78, 0xFA, 
  0x96, 0x3B, 0x00, 0x00, 0xC0, 0x01, 0xBE, 0xD9, 0x01, 0x00, 0x00, 0x00, 
  0x00, 0x00, 0x70, 0xFF, 0x3B, 0x72, 0x00, 0x00, 0xC0, 0x00, 0xED, 0xEF, 
  0x01, 0x00, 0x00, 0x00, 0x00, 0x00, 0x70, 0x5A, 0xDF, 0x75, 0x00, 0x00, 
  0xC0, 0x00, 0xDF, 0xED, 0x00, 0x00, 0x00, 0x00, 0x00, 0x00, 0xE0, 0xDD, 
  0x56, 0x66, 0x00, 0x00, 0xC0, 0x00, 0xFB, 0x77, 0x00, 0x00, 0x00, 0x00, 
  0x00, 0x00, 0xC0, 0xFD, 0xFF, 0xFB, 0x00, 0x00, 0xE0, 0x80, 0xAD, 0x76, 
  0x00, 0x00, 0x00, 0x00, 0x00, 0x00, 0xC0, 0xF9, 0x7F, 0xE6, 0x00, 0x00, 
  0x60, 0xC0, 0xFF, 0x3F, 0x00, 0x00, 0x00, 0x00, 0x00, 0x00, 0x80, 0xEB, 
  0xEF, 0xDA, 0x00, 0x00, 0x60, 0x80, 0xFB, 0x3D, 0x00, 0x00, 0x00, 0x00, 
  0x00, 0x00, 0x80, 0x7F, 0x7E, 0xE7, 0x00, 0x00, 0x60, 0xC0, 0x7F, 0x19, 
  0x00, 0x00, 0x00, 0x00, 0x00, 0x00, 0x00, 0xDB, 0xEB, 0xDD, 0x00, 0x00, 
  0x70, 0x80, 0xEF, 0x1F, 0x00, 0x00, 0x00, 0x00, 0x00, 0x00, 0x00, 0xB7, 
  0xFF, 0xD7, 0x01, 0x00, 0x30, 0xE0, 0xFD, 0x1E, 0x00, 0x00, 0x00, 0x00, 
  0x00, 0x00, 0x00, 0xFF, 0xFF, 0xDC, 0x01, 0x00, 0x30, 0xE0, 0xBF, 0x0C, 
  0x00, 0x00, 0x00, 0x00, 0x00, 0x00, 0x00, 0xE7, 0xF9, 0xCB, 0x01, 0x00, 
  0x30, 0xE1, 0xFF, 0x0F, 0x00, 0x00, 0x00, 0x00, 0x00, 0x00, 0x80, 0xFF, 
  0xFF, 0xBD, 0x03, 0x00, 0x30, 0xE1, 0xFF, 0x0F, 0x00, 0x00, 0x00, 0x00, 
  0x00, 0x00, 0xFC, 0xEF, 0xFF, 0xDF, 0xFF, 0x03, 0x30, 0xA0, 0xF7, 0x0E, 
  0x00, 0x00, 0x00, 0x00, 0x00, 0x00, 0xFE, 0xB7, 0x7F, 0xAB, 0xFF, 0x07, 
  0x30, 0xF0, 0x7F, 0x0F, 0x00, 0x00, 0x00, 0x00, 0x00, 0x00, 0x67, 0xF7, 
  0xFB, 0xB7, 0x5B, 0x0E, 0x30, 0xF0, 0xEF, 0x06, 0x00, 0x00, 0x00, 0x00, 
  0x00, 0x00, 0xDE, 0xFD, 0xFF, 0x6D, 0x85, 0x0F, 0x30, 0xE4, 0xFF, 0x0F, 
  0x00, 0x00, 0x00, 0x00, 0x00, 0x00, 0xEE, 0xFF, 0xFF, 0xF7, 0xFF, 0x07, 
  0x30, 0xF0, 0xFF, 0x06, 0x00, 0x00, 0x00, 0x00, 0x00, 0x00, 0xAC, 0xFF, 
  0xFF, 0x7F, 0x3B, 0x03, 0x30, 0xF1, 0xFF, 0x07, 0x00, 0x00, 0x00, 0x00, 
  0x00, 0x00, 0xB8, 0xFF, 0xFF, 0xF7, 0xDF, 0x03, 0x30, 0xE0, 0xFF, 0x07, 
  0x00, 0x00, 0x00, 0x00, 0x00, 0x00, 0x78, 0xFF, 0xFF, 0x7F, 0x9D, 0x03, 
  0xB0, 0xF4, 0xFF, 0x07, 0x00, 0x00, 0x00, 0x00, 0x00, 0x00, 0xF0, 0xFF, 
  0xFF, 0xFF, 0xE9, 0x01, 0x30, 0xE0, 0xFF, 0x06, 0x00, 0x00, 0x00, 0x00, 
  0x00, 0x00, 0xF0, 0xFF, 0xFF, 0xEB, 0xFF, 0x00, 0x30, 0xF0, 0xFF, 0x0F, 
  0x00, 0x00, 0x00, 0x00, 0x00, 0x00, 0xE0, 0xFE, 0xFF, 0xFD, 0x77, 0x00, 
  0x30, 0xF9, 0xFF, 0x0E, 0x00, 0x00, 0x00, 0x00, 0x00, 0x00, 0xE0, 0xFE, 
  0xFF, 0x7F, 0x7B, 0x00, 0x30, 0xE0, 0xFF, 0x0E, 0x00, 0x00, 0x00, 0x00, 
  0x00, 0x00, 0xC0, 0xFF, 0xFF, 0xEF, 0x3D, 0x00, 0x70, 0xF4, 0xFF, 0x0F, 
  0x00, 0x00, 0x00, 0x00, 0x00, 0x00, 0x80, 0xFB, 0xFF, 0xFF, 0x3A, 0x00, 
  0x30, 0xF4, 0xFF, 0x0F, 0x00, 0x00, 0x00, 0x00, 0x00, 0x00, 0x00, 0xF7, 
  0xFF, 0xBF, 0x1E, 0x00, 0x70, 0xE0, 0xFF, 0x1D, 0x00, 0x00, 0x00, 0x00, 
  0x00, 0x00, 0x00, 0xFF, 0xFF, 0xFF, 0x0F, 0x00, 0x70, 0xC6, 0xFF, 0x1F, 
  0x00, 0x00, 0x00, 0x00, 0x00, 0x00, 0x00, 0xFE, 0xFF, 0x7F, 0x0E, 0x00, 
  0x60, 0xE0, 0xFF, 0x1B, 0x00, 0x00, 0x00, 0x00, 0x00, 0x00, 0x00, 0xDE, 
  0xFF, 0xFF, 0x07, 0x00, 0x60, 0xD2, 0xFF, 0x3F, 0x00, 0x00, 0x00, 0x00, 
  0x00, 0x00, 0x00, 0xFC, 0xFF, 0x7F, 0x07, 0x00, 0x60, 0xC8, 0xFF, 0x3F, 
  0x00, 0x00, 0x00, 0x00, 0x00, 0x00, 0x00, 0xF8, 0xFF, 0xDF, 0x03, 0x00, 
  0xE0, 0xE0, 0xFF, 0x7F, 0x00, 0x00, 0x00, 0x00, 0x00, 0x00, 0x00, 0xB8, 
  0xFF, 0xDF, 0x01, 0x00, 0xE0, 0xC9, 0xFF, 0x7F, 0x00, 0x00, 0x00, 0x00, 
  0x00, 0x00, 0x00, 0xF0, 0xFF, 0xE7, 0x00, 0x00, 0xC0, 0xC4, 0xFF, 0xFF, 
  0x00, 0x00, 0x00, 0x00, 0x00, 0x00, 0x00, 0xE0, 0xFF, 0xF7, 0x00, 0x00, 
  0xC0, 0x11, 0xFF, 0xEF, 0x00, 0x00, 0x00, 0x00, 0x00, 0x00, 0x00, 0xE0, 
  0xFF, 0x7F, 0x00, 0x00, 0xC0, 0x6D, 0xFF, 0xFF, 0x01, 0x00, 0x00, 0x00, 
  0x00, 0x00, 0x00, 0xC0, 0xFD, 0x37, 0x00, 0x00, 0x80, 0x91, 0xFF, 0xDF, 
  0x03, 0x00, 0x00, 0x00, 0x00, 0x00, 0x00, 0xC0, 0xFF, 0x3D, 0x00, 0x00, 
  0x80, 0x43, 0xFE, 0xFF, 0x07, 0x00, 0x00, 0x00, 0x00, 0x00, 0x00, 0x80, 
  0xFF, 0x1F, 0x00, 0x00, 0x00, 0x67, 0xFE, 0xFF, 0x0F, 0x00, 0x00, 0x00, 
  0x00, 0x00, 0x00, 0x00, 0xFF, 0x1D, 0x00, 0x00, 0x00, 0x97, 0xFF, 0xFF, 
  0x1F, 0x00, 0x00, 0x00, 0x00, 0x00, 0x00, 0x00, 0xE7, 0x0F, 0x00, 0x00, 
  0x00, 0x47, 0xFE, 0xFF, 0x1F, 0x00, 0x00, 0x00, 0x00, 0x00, 0x00, 0x00, 
  0xDE, 0x0E, 0x00, 0x00, 0x00, 0xAE, 0xFD, 0xFF, 0x7F, 0x00, 0x00, 0x00, 
  0x00, 0x00, 0x00, 0x00, 0xBC, 0x07, 0x00, 0x00, 0x00, 0x4E, 0xFA, 0xFF, 
  0xFF, 0x00, 0x00, 0x00, 0x00, 0x00, 0x00, 0x00, 0xBC, 0x03, 0x00, 0x00, 
  0x00, 0x9C, 0xF9, 0xFF, 0xFF, 0x03, 0x00, 0x00, 0x00, 0x00, 0x00, 0x00, 
  0xF8, 0x01, 0x00, 0x00, 0x00, 0x3C, 0xF6, 0xFF, 0xFF, 0x07, 0x00, 0x00, 
  0x00, 0x00, 0x00, 0x00, 0xF0, 0x01, 0x00, 0x00, 0x00, 0x38, 0xEB, 0xFF, 
  0xFF, 0x1F, 0x00, 0x00, 0x00, 0x00, 0x00, 0x00, 0xF0, 0x00, 0x00, 0x00, 
  0x00, 0xB0, 0xF6, 0xFF, 0xFF, 0x7F, 0x00, 0x00, 0x00, 0x00, 0x00, 0x00, 
  0x00, 0x00, 0x00, 0x00, 0x00, 0x70, 0xD9, 0xFF, 0xFF, 0xFF, 0x03, 0x00, 
  0x00, 0x00, 0x00, 0x00, 0x00, 0x00, 0x00, 0x00, 0x00, 0xE0, 0xF4, 0xFF, 
  0xFF, 0xFF, 0x7F, 0x00, 0x00, 0x00, 0x00, 0x00, 0x00, 0x00, 0x00, 0x00, 
  0x00, 0xC0, 0x3D, 0xFF, 0xFF, 0xFF, 0xFF, 0x03, 0x00, 0x00, 0x00, 0x00, 
  0x00, 0x00, 0x00, 0x00, 0x00, 0xC0, 0xE1, 0xFF, 0xFF, 0xFF, 0xFE, 0x07, 
  0x00, 0x00, 0x00, 0x00, 0x00, 0x00, 0x00, 0x00, 0x00, 0x80, 0x67, 0xFF, 
  0xFF, 0xFF, 0xFF, 0x07, 0x00, 0x00, 0x00, 0x00, 0x00, 0x00, 0x00, 0x00, 
  0x00, 0x00, 0xEF, 0xFA, 0xFF, 0xFF, 0xFF, 0x07, 0x00, 0x00, 0x00, 0x00, 
  0x00, 0x00, 0x00, 0x00, 0x00, 0x00, 0xEE, 0xF5, 0xFF, 0xFF, 0xFF, 0x07, 
  0x00, 0x00, 0x00, 0x00, 0x00, 0x00, 0x00, 0x00, 0x00, 0x00, 0x9E, 0xFF, 
  0xFF, 0xFF, 0xFF, 0x07, 0x00, 0x00, 0x00, 0x00, 0x00, 0x00, 0x00, 0x00, 
  0x00, 0x00, 0x78, 0xFE, 0xFF, 0xFF, 0xFF, 0x07, 0x00, 0x00, 0x00, 0x00, 
  0x00, 0x00, 0x00, 0x00, 0x00, 0x00, 0x78, 0xF6, 0xFF, 0xFF, 0xFF, 0x07, 
  0x00, 0x00, 0x00, 0x00, 0x00, 0x00, 0x00, 0x00, 0x00, 0x00, 0xF0, 0xFD, 
  0xFD, 0xFF, 0xFF, 0x07, 0x00, 0x00, 0x00, 0x00, 0x00, 0x00, 0x00, 0x00, 
  0x00, 0x00, 0xE0, 0xEB, 0xFF, 0xFF, 0xFF, 0x07, 0x00, 0x00, 0x00, 0x00, 
  0x00, 0x00, 0x00, 0x00, 0x00, 0x00, 0x80, 0xA7, 0xFB, 0xFF, 0xFF, 0x07, 
  0x00, 0x00, 0x00, 0x00, 0x00, 0x00, 0x00, 0x00, 0x00, 0x00, 0x00, 0xDF, 
  0xFF, 0xFF, 0xFF, 0x07, 0x00, 0x00, 0x00, 0x00, 0x00, 0x00, 0x00, 0x00, 
  0x00, 0x00, 0x00, 0xBE, 0xFF, 0xFF, 0xFF, 0x07, 0x00, 0x00, 0x00, 0x00, 
  0x00, 0x00, 0x00, 0x00, 0x00, 0x00, 0x00, 0x7C, 0xFE, 0xFF, 0xFF, 0x07, 
  0x00, 0x00, 0x00, 0x00, 0x00, 0x00, 0x00, 0x00, 0x00, 0x00, 0x00, 0xF0, 
  0xF5, 0xFF, 0xFF, 0x07, 0x00, 0x00, 0x00, 0x00, 0x00, 0x00, 0x00, 0x00, 
  0x00, 0x00, 0x00, 0xE0, 0xEF, 0xFF, 0xFF, 0x07, 0x00, 0x00, 0x00, 0x00, 
  0x00, 0x00, 0x00, 0x00, 0x00, 0x00, 0x00, 0x00, 0x7F, 0xFF, 0x7F, 0x07, 
  0x00, 0x00, 0x00, 0x00, 0x00, 0x00, 0x00, 0x00, 0x00, 0x00, 0x00, 0x00, 
  0xFE, 0xFA, 0xFF, 0x07, 0x00, 0x00, 0x00, 0x00, 0x00, 0x00, 0x00, 0x00, 
  0x00, 0x00, 0x00, 0x00, 0xF0, 0xDF, 0xFF, 0x06, 0x00, 0x00, 0x00, 0x00, 
  0x00, 0x00, 0x00, 0x00, 0x00, 0x00, 0x00, 0x00, 0xE0, 0xBF, 0x7F, 0x07, 
  0x00, 0x00, 0x00, 0x00, 0x00, 0x00, 0x00, 0x00, 0x00, 0x00, 0x00, 0x00, 
  0x00, 0xFF, 0xFF, 0x07, 0x00, 0x00, 0x00, 0x00, 0x00, 0x00, 0x00, 0x00, 
  0x00, 0x00, 0x00, 0x00, 0x00, 0xF0, 0xFF, 0x07, 0x00, 0x00, 0x00, 0x00, 
  0x00, 0x00, 0x00, 0x00, 0x00, 0x00, 0x00, 0x00, 0x00, 0x00, 0xFE, 0x03, 
  0x00, 0x00, 0x00, 0x00, 0x00, 0x00, 0x00, 0x00, 0x00, 0x00, 0x00, 0x00, 
  0x00, 0x00, 0x00, 0x00, 0x00, 0x00, 0x00, 0x00, 0x00, 0x00, 0x00, 0x00, 
  0x00, 0x00, 0x00, 0x00, 0x00, 0x00, 0x00, 0x00, 0x00, 0x00, 0x00, 0x00, 
  0x00, 0x00, 0x00, 0x00, 0x00, 0x00, 0x00, 0x00, 0x00, 0x00, 0x00, 0x00, 
  0x00, 0x00, 0x00, 0x00, 0x00, 0x00, 0x00, 0x00, 0x00, 0x00, 0x00, 0x00, 
  0x00, 0x00, 0x00, 0x00, 0x00, 0x00, 0x00, 0x00, 0x00, 0x00, 0x00, 0x00, 
  0x00, 0x00, 0x00, 0x00, 0x00, 0x00, 0x00, 0x00, 0x00, 0x00, 0x00, 0x00, 
  0x00, 0x00, 0x00, 0x00, 0x00, 0x00, 0x00, 0x00, 0x00, 0x00, 0x00, 0x00, 
  0x00, 0x00, 0x00, 0x00, 0x00, 0x00, 0x00, 0x00, 0x00, 0x00, 0x00, 0x00, 
  0x00, 0x00, 0x00, 0x00, 0x00, 0x00, 0x00, 0x00, 0x00, 0x00, 0x00, 0x00, 
  0x00, 0x00, 0x00, 0x00, 0x00, 0x00, 0x00, 0x00, 0x00, 0x00, 0x00, 0x00, 
  0x00, 0x00, 0x00, 0x00, 0x00, 0x00, 0x00, 0x00, 0x00, 0x00, 0x00, 0x00, 
  0x00, 0x00, 0x00, 0x00, 0x00, 0x00, 0x00, 0x00, };
